<?xml version="1.0" encoding="utf-8"?>
<!-- Generator: Adobe Illustrator 28.1.0, SVG Export Plug-In . SVG Version: 6.00 Build 0)  -->
<svg version="1.1" id="Layer_1" xmlns="http://www.w3.org/2000/svg" xmlns:xlink="http://www.w3.org/1999/xlink" x="0px" y="0px"
	 viewBox="0 0 121.1 15.8" style="enable-background:new 0 0 121.1 15.8;" xml:space="preserve">
<style type="text/css">
	.st0{fill:#92A0B3;}
	.st1{fill:#010101;}
</style>
<path class="st0" d="M76.6,13.9c4.2,0,6.5-2.5,6.5-6c0-3.6-2.3-6-6.5-6h-4.1v12.1H76.6z M80.9,7.8c0,2.5-1.4,4.1-4.4,4.1h-2V3.7h2
	C79.5,3.7,80.9,5.4,80.9,7.8z M86.8,7.8c0-2.6,1.7-4.3,4.1-4.3s4.1,1.7,4.1,4.3s-1.7,4.3-4.1,4.3C88.4,12.2,86.7,10.5,86.8,7.8
	L86.8,7.8z M84.6,7.8c-0.1,3.3,2.5,6.2,5.8,6.3c0.1,0,0.3,0,0.4,0c3.7,0,6.2-2.7,6.2-6.3c0.1-3.3-2.5-6.2-5.8-6.3
	c-0.1,0-0.3,0-0.4,0c-3.3-0.1-6.1,2.5-6.2,5.9C84.6,7.6,84.6,7.7,84.6,7.8L84.6,7.8z M98.6,7.8c0,3.7,2.5,6.3,6,6.3
	c3,0,5.3-1.8,5.8-4.7h-2.2c-0.4,1.7-1.8,2.7-3.6,2.7c-2.4,0-3.8-1.7-3.8-4.3s1.4-4.3,3.9-4.3c1.8,0,3.2,1,3.6,2.7h2.2
	c-0.5-2.9-2.8-4.7-5.8-4.7C101.1,1.6,98.6,4.1,98.6,7.8z M116.4,12.3c-1.6,0-2.5-0.9-2.6-2.2h-2c0.1,2,1.3,4,4.5,4
	c2.9,0,4.8-1.4,4.8-3.6c0-4.8-6.8-2.8-6.8-5.4c0-1.1,0.9-1.7,2.3-1.7c1.5,0,2.3,0.9,2.4,2.1h2c-0.1-2.3-1.5-4-4.4-4
	c-2.7,0-4.3,1.6-4.3,3.6c0,4.8,6.8,2.5,6.8,5.5C119,11.7,118,12.3,116.4,12.3L116.4,12.3z"/>
<g>
	<path class="st1" d="M2.1,13.7h8.2v1.8H0V0h10.1v1.8H2.1v4.8H10v1.8H2.1V13.7z"/>
	<path class="st1" d="M23.2,0h2.1v15.6H21L14,0.1v15.5h-2.1V0h4.3l7,15.5L23.2,0L23.2,0z"/>
	<path class="st1" d="M27.6,15.6V0h2.1v15.6H27.6z"/>
	<path class="st1" d="M31.9,9.4L31.9,9.4V0h2.1v9.4v0c0,3.1,1.4,4.6,4.1,4.6c2.7,0,4-1.5,4-4.6V0h2.1v9.3c0,4.1-1.7,6.5-6.1,6.5
		S31.9,13.4,31.9,9.4z"/>
	<path class="st1" d="M63.9,15.6h-2.1V0.1l-4.6,15.5h-4.3L48.3,0.1v15.5h-2.1V0h4.2l4.6,15.5L59.7,0h4.2L63.9,15.6L63.9,15.6z"/>
</g>
</svg>
